Coordinates
version=1
nRows=8
nColumns=40
inDegrees=yes

Units are S.I. units (second, meters, Newtons, ...)
If the header above contains a line with 'inDegrees', this indicates whether rotational values are in degrees (yes) or radians (no).

endheader
time	pelvis_tilt	pelvis_list	pelvis_rotation	pelvis_tx	pelvis_ty	pelvis_tz	hip_flexion_r	hip_adduction_r	hip_rotation_r	knee_angle_r	knee_angle_r_beta	ankle_angle_r	subtalar_angle_r	mtp_angle_r	hip_flexion_l	hip_adduction_l	hip_rotation_l	knee_angle_l	knee_angle_l_beta	ankle_angle_l	subtalar_angle_l	mtp_angle_l	lumbar_extension	lumbar_bending	lumbar_rotation	arm_flex_r	arm_add_r	arm_rot_r	elbow_flex_r	pro_sup_r	wrist_flex_r	wrist_dev_r	arm_flex_l	arm_add_l	arm_rot_l	elbow_flex_l	pro_sup_l	wrist_flex_l	wrist_dev_l
     10.10000000	    -88.92150451	     83.28711891	    -88.40761336	      0.83089159	      0.27553347	      0.57531062	     45.00000012	     -9.99999999	      0.00000000	     60.00014062	      1.04720001	     -4.99999985	      0.00000000	      0.00000000	     45.00000012	     -9.99999999	      0.00000000	     60.00014062	      1.04720001	     -4.99999985	      0.00000000	      0.00000000	    -25.22218910	     -1.51237671	      2.80863051	     -2.83436865	    -34.52043752	     31.60229725	     97.29247497	     86.34492284	      0.00000000	      0.00000000	      6.13109431	    -37.74409309	     44.62221649	     93.25590300	     89.20646745	      0.00000000	      0.00000000
     10.10500000	    -88.92383374	     83.29348877	    -88.41122373	      0.83088581	      0.27549672	      0.57529505	     45.00000012	     -9.99999999	      0.00000000	     60.00014062	      1.04720001	     -4.99999985	      0.00000000	      0.00000000	     45.00000012	     -9.99999999	      0.00000000	     60.00014062	      1.04720001	     -4.99999985	      0.00000000	      0.00000000	    -25.21438036	     -1.50755925	      2.81781911	     -2.84758919	    -34.53336951	     31.59785064	     97.29925027	     86.34709381	      0.00000000	      0.00000000	      6.12969305	    -37.72628491	     44.61103068	     93.22993591	     89.20773040	      0.00000000	      0.00000000
     10.11000000	    -88.92317593	     83.23234928	    -88.45361380	      0.83087877	      0.27567957	      0.57544323	     45.00000012	     -9.99999999	      0.00000000	     60.00014062	      1.04720001	     -4.99999985	      0.00000000	      0.00000000	     45.00000012	     -9.99999999	      0.00000000	     60.00014062	      1.04720001	     -4.99999985	      0.00000000	      0.00000000	    -25.28635881	     -1.53636261	      2.85683661	     -2.84185465	    -34.50119872	     31.60548215	     97.26539242	     86.32001398	      0.00000000	      0.00000000	      6.14751093	    -37.74220854	     44.61196800	     93.23424330	     89.21254868	      0.00000000	      0.00000000
     10.11500000	    -88.92019298	     83.30224059	    -88.41994202	      0.83092198	      0.27552395	      0.57526933	     45.00000012	     -9.99999999	      0.00000000	     60.00014062	      1.04720001	     -4.99999985	      0.00000000	      0.00000000	     45.00000012	     -9.99999999	      0.00000000	     60.00014062	      1.04720001	     -4.99999985	      0.00000000	      0.00000000	    -25.20379540	     -1.50938661	      2.82141975	     -2.83777212	    -34.52858899	     31.60820209	     97.28270053	     86.35678897	      0.00000000	      0.00000000	      6.12532241	    -37.72064177	     44.59915866	     93.23002418	     89.20845744	      0.00000000	      0.00000000
     10.12000000	    -88.90763361	     83.25729623	    -88.40418060	      0.83091576	      0.27546516	      0.57535636	     45.00000012	     -9.99999999	      0.00000000	     60.00014062	      1.04720001	     -4.99999985	      0.00000000	      0.00000000	     45.00000012	     -9.99999999	      0.00000000	     60.00014062	      1.04720001	     -4.99999985	      0.00000000	      0.00000000	    -25.24835451	     -1.49123522	      2.80312125	     -2.83401057	    -34.53247820	     31.61199262	     97.30543330	     86.14428308	      0.00000000	      0.00000000	      6.16197786	    -37.71284229	     44.63909128	     93.19070302	     89.22000505	      0.00000000	      0.00000000
     10.12500000	    -88.91171751	     83.30863701	    -88.42575377	      0.83093642	      0.27555623	      0.57524406	     45.00000012	     -9.99999999	      0.00000000	     60.00014062	      1.04720001	     -4.99999985	      0.00000000	      0.00000000	     45.00000012	     -9.99999999	      0.00000000	     60.00014062	      1.04720001	     -4.99999985	      0.00000000	      0.00000000	    -25.19502407	     -1.50936506	      2.83015846	     -2.85947293	    -34.51327388	     31.56916296	     97.28394107	     86.36303275	      0.00000000	      0.00000000	      6.13733374	    -37.71724983	     44.60793859	     93.22359560	     89.20632689	      0.00000000	      0.00000000
     10.13000000	    -88.93584926	     83.27065828	    -88.39621969	      0.83090202	      0.27552149	      0.57532996	     45.00000012	     -9.99999999	      0.00000000	     60.00014062	      1.04720001	     -4.99999985	      0.00000000	      0.00000000	     45.00000012	     -9.99999999	      0.00000000	     60.00014062	      1.04720001	     -4.99999985	      0.00000000	      0.00000000	    -25.23329153	     -1.49875816	      2.84943507	     -2.90481930	    -34.51450366	     31.52141922	     97.30553907	     86.27900826	      0.00000000	      0.00000000	      6.18562360	    -37.70708717	     44.67058504	     93.20115535	     89.21573532	      0.00000000	      0.00000000
     10.13500000	    -88.92291404	     83.30853779	    -88.42847913	      0.83091373	      0.27557666	      0.57524054	     45.00000012	     -9.99999999	      0.00000000	     60.00014062	      1.04720001	     -4.99999985	      0.00000000	      0.00000000	     45.00000012	     -9.99999999	      0.00000000	     60.00014062	      1.04720001	     -4.99999985	      0.00000000	      0.00000000	    -25.18521458	     -1.51014094	      2.84363754	     -2.86370467	    -34.51609792	     31.59053873	     97.28411795	     86.32630786	      0.00000000	      0.00000000	      6.13078685	    -37.71421638	     44.60791274	     93.22624035	     89.20860664	      0.00000000	      0.00000000
